<svg xmlns="http://www.w3.org/2000/svg" data-name="Layer 1" viewBox="0 0 100 125" x="0px" y="0px"><title>Edit</title><path d="M67.586,96.518h-39.1A26.015,26.015,0,0,1,2.5,70.532v-39.1A26.015,26.015,0,0,1,28.486,5.447H45.9V8.433H28.486a23.026,23.026,0,0,0-23,23v39.1a23.026,23.026,0,0,0,23,23h39.1a23.026,23.026,0,0,0,23-23V50.982h2.986v19.55A26.014,26.014,0,0,1,67.586,96.518Z"/><path d="M83.011,3.482l-48.74,48.74-.033.149L30.316,70.666l18.295-3.922.149-.032L97.5,17.972ZM48.669,63.509l-11.2-11.2,35.6-35.594,11.2,11.2Z"/><text x="0" y="115" fill="#000000" font-size="5px" font-weight="bold" font-family="'Helvetica Neue', Helvetica, Arial-Unicode, Arial, Sans-serif">Created by Rainbow Designs</text><text x="0" y="120" fill="#000000" font-size="5px" font-weight="bold" font-family="'Helvetica Neue', Helvetica, Arial-Unicode, Arial, Sans-serif">from the Noun Project</text></svg>